<?xml version="1.0" encoding="UTF-8"?><svg id="Calque_1" xmlns="http://www.w3.org/2000/svg" viewBox="0 0 250 250"><defs><style>.cls-1{fill:#00497f;}</style></defs><path class="cls-1" d="M178.24,169.68c-2.47-10.56-1.81-20.56,.18-29.26-17.07-1.45-32.25-2.68-45.38-3.75-6.61-.54-12.68-1.02-18.21-1.51-.74-.08-1.56-.13-2.45-.2-7.02-.56-17.91-1.15-31.56,.92-3.75,.59-7.19,1.25-10.18,1.94-.33,1.43-.61,2.91-.89,4.41-2.58,14.08-2.27,26.28-1.35,35.1,2.47,.08,4.95,.18,7.42,.26-.03-4.16,.28-7.93,.69-11.22,.05,3.34,.33,7.14,1.02,11.3,4.64,.15,9.29,.33,13.93,.48,.48-6.68,2.07-12.12,3.49-15.92-.2,3.8-.13,9.49,1.56,16.1,16.56,.59,33.09,1.17,49.64,1.79,.2-2.98,.48-5.89,.79-8.72,.46,2.88,.99,5.82,1.58,8.8,2.98,.1,5.97,.2,8.95,.31,.15-.82,.33-1.66,.51-2.5,1.43-6.53,3.21-12.37,5.03-17.4-.69,5.18-1.07,11.94-.1,19.69,.03,.13,.03,.28,.05,.41,6.43,.23,12.88,.46,19.31,.69-1.61-3.52-3.04-7.42-4.03-11.71Z"/><path class="cls-1" d="M113.09,131.11c1.53,.18,2.73,.36,3.55,.46,4.57,.61,10.13,1.17,16.96,1.51,11.56,.59,26.79,.59,47.12-.64,.18-.59,.41-1.17,.61-1.76,2.98-8.09-3.09-16.63-11.71-16.63h-31.38c.28,0,3.16-7.91,3.55-8.71,1.43-2.96,3.05-5.83,4.86-8.58,1.93-2.93,4.07-5.72,6.35-8.37,3.54-4.11,8.62-7.1,5.27-13.21-3.72-6.79-13.92-9.15-19.32-3.04-12.17,13.75-18.01,26.76-22.02,41.91h-22.3c-10.2,0-19.26,6.63-22.14,16.4,3.11-.31,6.58-.56,10.36-.69,13.55-.51,24.39,.59,30.23,1.35Z"/></svg>